<svg width="80" height="80" viewBox="0 0 80 80" fill="none" xmlns="http://www.w3.org/2000/svg">
<path d="M74.728 30.5424C79.8634 49.7109 68.4462 69.486 49.2777 74.6213C47.2215 75.1712 45.1587 75.5311 43.1059 75.7144L46.515 69.8092C46.9749 69.7092 47.4348 69.5959 47.8947 69.4726C64.2239 65.0971 73.9482 48.2513 69.5726 31.922C67.0133 22.3677 60.185 15.0762 51.6871 11.5471L54.3731 6.89494C64.0473 11.1372 71.7821 19.5684 74.7247 30.5424H74.728Z" fill="#1BBCEF"/>
<path d="M36.8075 4.00233L33.395 9.91086C32.9385 10.0075 32.4819 10.1208 32.0287 10.2441C15.6994 14.6197 5.97519 31.4655 10.3508 47.7947C12.9101 57.349 19.7384 64.6405 28.2363 68.1696L25.5503 72.8218C15.876 68.5795 8.14132 60.1483 5.19872 49.1744C0.0600045 30.0058 11.4772 10.2308 30.6457 5.09539C32.6952 4.54553 34.7547 4.18229 36.8042 4.00233H36.8075Z" fill="#1BBCEF"/>
<path d="M34.0448 31.4421L29.7126 38.9436L41.2564 45.6119L35.5911 55.4228L14.2365 43.0892L33.395 9.91418L36.8075 4.00566C41.0631 3.62909 45.272 4.02565 49.2577 5.09872L46.4784 9.91085L34.0448 31.4455V31.4421Z" fill="white"/>
<path d="M65.6836 36.6242L46.515 69.8092L43.1059 75.7144C38.8536 76.091 34.6513 75.6911 30.669 74.6213L45.8785 48.2746H45.8752L50.2108 40.7698L38.667 34.1048L44.3323 24.2939L65.6869 36.6242H65.6836Z" fill="white"/>
</svg>